<?xml version="1.0" encoding="utf-8"?>
<!-- Generator: Adobe Illustrator 27.0.1, SVG Export Plug-In . SVG Version: 6.00 Build 0)  -->
<svg version="1.1" id="Layer_1" xmlns="http://www.w3.org/2000/svg" xmlns:xlink="http://www.w3.org/1999/xlink" x="0px" y="0px"
	 viewBox="0 0 700 700" style="enable-background:new 0 0 700 700;" xml:space="preserve">
<g>
	<path d="M544.3,371.3H154.6c-11.8,0-21.3-9.5-21.3-21.3s9.5-21.3,21.3-21.3h390.3c11.8,0,21.3,9.5,21.3,21.3
		S556.6,371.3,544.3,371.3L544.3,371.3z"/>
	<path d="M544.3,203.3H154.6c-11.8,0-21.3-9.5-21.3-21.3s9.5-21.3,21.3-21.3h390.3c11.8,0,21.3,9.5,21.3,21.3
		S556.6,203.3,544.3,203.3L544.3,203.3z"/>
	<path d="M544.3,539.3H154.6c-11.8,0-21.3-9.5-21.3-21.3c0-11.8,9.5-21.3,21.3-21.3h390.3c11.8,0,21.3,9.5,21.3,21.3
		C566.2,529.8,556.6,539.3,544.3,539.3L544.3,539.3z"/>
</g>
</svg>
